<svg width="139" height="56" viewBox="0 0 139 56" fill="none" xmlns="http://www.w3.org/2000/svg">
<path fill-rule="evenodd" clip-rule="evenodd" d="M0.460631 0.0756104C0.444518 0.117196 0.440179 12.647 0.451102 27.9197L0.470933 55.6882L10.0574 55.6879C15.3299 55.6878 19.6787 55.6875 19.7213 55.6873C19.7728 55.6871 19.7987 46.3615 19.7987 27.8624C19.7987 12.5589 19.7726 0.0376541 19.7406 0.0375029C11.4585 -0.00491451 0.483406 0.0167855 0.460631 0.0756104ZM58.1737 0.189026C57.9933 0.389923 56.7961 1.83423 53.5352 5.78525C52.4274 7.12748 50.9808 8.87991 50.3204 9.67964C49.66 10.4794 47.9867 12.5058 46.602 14.1829C45.2173 15.86 42.6725 18.9393 40.947 21.0257C35.6683 27.4083 35.4088 27.7235 35.3885 27.7758C35.3776 27.8037 36.5284 29.2381 37.9457 30.9634C41.8209 35.6805 47.2504 42.2846 49.3517 44.8369C50.3788 46.0845 52.7824 49.0106 54.6931 51.3394C56.6038 53.6682 58.1901 55.5993 58.2183 55.6308C58.2658 55.6839 81.1469 55.717 81.2012 55.664C81.2148 55.6509 80.0373 54.1961 78.5847 52.4312C75.4219 48.5884 70.3044 42.3647 66.1622 37.3232C64.5005 35.3008 62.0641 32.3394 60.748 30.7422C58.7345 28.2988 58.3682 27.8176 58.4386 27.7076C58.4845 27.6358 59.5451 26.3398 60.7954 24.8276C62.0456 23.3154 63.8686 21.1085 64.8464 19.9233C65.8242 18.7381 67.0038 17.3091 67.4678 16.7477C67.9317 16.1863 68.9152 14.9954 69.6533 14.1013C72.5151 10.6347 77.0269 5.17591 79.7016 1.94394C80.5443 0.925697 81.221 0.0799966 81.2052 0.0646477C81.1895 0.0493744 76.0392 0.028506 69.7601 0.0183742L58.3435 0L58.1737 0.189026ZM115.82 0.378052C115.522 0.72533 114.003 2.56274 110.164 7.22079C109.359 8.19805 108.277 9.508 107.761 10.1318C107.245 10.7556 105.067 13.3925 102.92 15.9916C100.774 18.5907 98.5953 21.2276 98.079 21.8514C97.5627 22.4752 96.62 23.615 95.9842 24.3843C95.3484 25.1537 94.4522 26.2372 93.9929 26.7921L93.1577 27.8012L93.4489 28.1557C94.6661 29.6375 101.024 37.3708 103.248 40.0735C104.753 41.9033 107.969 45.8161 110.394 48.7687C112.82 51.7213 115.102 54.4875 115.466 54.916L116.128 55.6951L127.547 55.6916C133.828 55.6896 138.981 55.6736 138.999 55.6559C139.017 55.6383 138.6 55.1022 138.072 54.4646C137.119 53.3129 135.862 51.7853 129.25 43.7406C124.289 37.7053 120.617 33.2425 118.343 30.4847C117.253 29.1616 116.314 28.0151 116.257 27.9371C116.163 27.8086 116.316 27.5983 117.884 25.702C122.272 20.3929 125.078 16.9965 126.447 15.3377C127.266 14.3458 129.651 11.4587 131.747 8.92202C133.843 6.38529 136.34 3.36292 137.295 2.20555C138.251 1.04826 139.018 0.0869513 139 0.0693341C138.982 0.0517169 133.832 0.0288839 127.556 0.0186765L116.145 0L115.82 0.378052Z" fill="white"/>
</svg>
