<svg width="77" height="31" viewBox="0 0 77 31" fill="none" xmlns="http://www.w3.org/2000/svg">
<path fill-rule="evenodd" clip-rule="evenodd" d="M0.508536 0.0414737C0.499698 0.0642843 0.497318 6.93714 0.50331 15.3145L0.514187 30.546L5.77253 30.5459C8.66463 30.5458 11.05 30.5456 11.0734 30.5456C11.1016 30.5454 11.1158 25.4302 11.1158 15.2831C11.1158 6.88878 11.1015 0.020654 11.084 0.0205711C6.54107 -0.0026957 0.521029 0.00920716 0.508536 0.0414737ZM32.1653 0.103684C32.0663 0.21388 31.4096 1.00611 29.6209 3.17332C29.0133 3.90956 28.2198 4.8708 27.8575 5.30946C27.4953 5.74813 26.5775 6.85967 25.8179 7.7796C25.0584 8.69948 23.6626 10.3885 22.7161 11.533C19.8206 15.034 19.6782 15.2069 19.6671 15.2356C19.6612 15.2509 20.2924 16.0377 21.0698 16.984C23.1954 19.5714 26.1736 23.1939 27.3262 24.5939C27.8896 25.2782 29.208 26.8833 30.2561 28.1606C31.3041 29.438 32.1743 30.4973 32.1897 30.5146C32.2157 30.5437 44.7665 30.5619 44.7963 30.5328C44.8037 30.5256 44.1578 29.7276 43.3611 28.7595C41.6262 26.6517 38.8192 23.2378 36.5471 20.4725C35.6356 19.3632 34.2992 17.7388 33.5773 16.8627C32.4729 15.5224 32.272 15.2585 32.3105 15.1982C32.3357 15.1588 32.9175 14.4479 33.6033 13.6184C34.2891 12.789 35.289 11.5784 35.8254 10.9283C36.3617 10.2782 37.0087 9.49437 37.2632 9.18643C37.5177 8.87848 38.0572 8.22527 38.4621 7.73485C40.0318 5.83336 42.5066 2.83908 43.9737 1.06629C44.436 0.507762 44.8071 0.0438796 44.7985 0.0354605C44.7899 0.0270828 41.9648 0.0156361 38.5206 0.0100786L32.2584 0L32.1653 0.103684ZM63.7855 0.207369C63.6217 0.397857 62.7886 1.40571 60.6829 3.96074C60.2411 4.49679 59.648 5.21532 59.3649 5.55748C59.0817 5.89964 57.8868 7.34603 56.7095 8.77169C55.5322 10.1973 54.3373 11.6437 54.0541 11.9859C53.7708 12.3281 53.2538 12.9533 52.905 13.3753C52.5563 13.7973 52.0647 14.3916 51.8127 14.696L51.3546 15.2495L51.5144 15.4439C52.182 16.2567 55.6696 20.4986 56.8891 21.9811C57.7147 22.9847 59.4788 25.131 60.8092 26.7505C62.1397 28.3701 63.3917 29.8874 63.5913 30.1225L63.9542 30.5498L70.2179 30.5479C73.6629 30.5468 76.4897 30.538 76.4996 30.5283C76.5095 30.5187 76.2807 30.2246 75.9912 29.8748C75.4681 29.2431 74.7788 28.4052 71.1517 23.9925C68.4306 20.6821 66.4166 18.2341 65.1695 16.7215C64.5712 15.9957 64.0561 15.3668 64.0249 15.324C63.9736 15.2535 64.0575 15.1382 64.9173 14.098C67.3244 11.1859 68.8637 9.32292 69.6146 8.41302C70.0636 7.86893 71.3717 6.28534 72.5215 4.8939C73.6712 3.50245 75.0407 1.84463 75.5649 1.20979C76.089 0.574992 76.5097 0.0476944 76.4998 0.0380311C76.4899 0.0283677 73.6653 0.0158433 70.2228 0.0102444L63.9638 0L63.7855 0.207369Z" fill="white"/>
</svg>
