<svg width="113" height="125" viewBox="0 0 113 125" fill="none" xmlns="http://www.w3.org/2000/svg">
<path d="M38.125 75.75C38.6773 75.75 39.125 75.3023 39.125 74.75C39.125 74.1977 38.6773 73.75 38.125 73.75V75.75ZM32 73.75C31.4477 73.75 31 74.1977 31 74.75C31 75.3023 31.4477 75.75 32 75.75V73.75ZM81 75.75C81.5523 75.75 82 75.3023 82 74.75C82 74.1977 81.5523 73.75 81 73.75V75.75ZM74.875 73.75C74.3227 73.75 73.875 74.1977 73.875 74.75C73.875 75.3023 74.3227 75.75 74.875 75.75V73.75ZM107.95 1.25V2.25V1.25ZM111.625 4.925H112.625H111.625ZM111.625 120.075H112.625H111.625ZM107.95 123.75V124.75V123.75ZM5.05 1.25V2.25V1.25ZM1.375 4.925H0.375H1.375ZM1.375 120.075H2.375H1.375ZM5.05 123.75V124.75V123.75ZM38.125 73.75H32V75.75H38.125V73.75ZM81 73.75H74.875V75.75H81V73.75ZM56.5 2.25H107.95V0.25H56.5V2.25ZM107.95 2.25C108.659 2.25 109.34 2.53183 109.842 3.03349L111.256 1.61928C110.379 0.742542 109.19 0.25 107.95 0.25V2.25ZM109.842 3.03349C110.343 3.53515 110.625 4.21554 110.625 4.925H112.625C112.625 3.68512 112.132 2.49601 111.256 1.61928L109.842 3.03349ZM110.625 4.925V120.075H112.625V4.925H110.625ZM110.625 120.075C110.625 120.784 110.343 121.465 109.842 121.967L111.256 123.381C112.132 122.504 112.625 121.315 112.625 120.075H110.625ZM109.842 121.967C109.34 122.468 108.659 122.75 107.95 122.75V124.75C109.19 124.75 110.379 124.257 111.256 123.381L109.842 121.967ZM107.95 122.75H56.5V124.75H107.95V122.75ZM56.5 0.25H5.05V2.25H56.5V0.25ZM5.05 0.25C3.81011 0.25 2.62101 0.742543 1.74428 1.61928L3.15849 3.03349C3.66015 2.53183 4.34055 2.25 5.05 2.25V0.25ZM1.74428 1.61928C0.867543 2.49601 0.375 3.68511 0.375 4.925H2.375C2.375 4.21555 2.65683 3.53515 3.15849 3.03349L1.74428 1.61928ZM0.375 4.925V120.075H2.375V4.925H0.375ZM0.375 120.075C0.375 121.315 0.867542 122.504 1.74428 123.381L3.15849 121.967C2.65683 121.465 2.375 120.784 2.375 120.075H0.375ZM1.74428 123.381C2.62101 124.257 3.81012 124.75 5.05 124.75V122.75C4.34054 122.75 3.66015 122.468 3.15849 121.967L1.74428 123.381ZM5.05 124.75H56.5V122.75H5.05V124.75ZM55.5 1.25V123.75H57.5V1.25H55.5Z" fill="#044B70"/>
</svg>
